<svg width="17" height="16" viewBox="0 0 17 16" fill="none" xmlns="http://www.w3.org/2000/svg">
<path d="M5.30078 7.50117C5.02464 7.50117 4.80078 7.72503 4.80078 8.00117C4.80078 8.27731 5.02464 8.50117 5.30078 8.50117V7.50117ZM14.9008 8.50117C15.1769 8.50117 15.4008 8.27731 15.4008 8.00117C15.4008 7.72503 15.1769 7.50117 14.9008 7.50117V8.50117ZM8.165 11.5713C8.3696 11.7567 8.6858 11.7412 8.87125 11.5366C9.0567 11.332 9.04117 11.0158 8.83657 10.8303L8.165 11.5713ZM5.835 8.78457L5.49921 9.15504H5.49921L5.835 8.78457ZM5.835 7.21699L5.49921 6.84652H5.49921L5.835 7.21699ZM8.83657 5.17125C9.04117 4.9858 9.0567 4.6696 8.87125 4.465C8.6858 4.26039 8.3696 4.24486 8.165 4.43031L8.83657 5.17125ZM5.30078 8.50117H14.9008V7.50117H5.30078V8.50117ZM8.83657 10.8303L6.17078 8.4141L5.49921 9.15504L8.165 11.5713L8.83657 10.8303ZM6.17078 7.58746L8.83657 5.17125L8.165 4.43031L5.49921 6.84652L6.17078 7.58746ZM6.17078 8.4141C6.00059 8.25984 5.90009 8.15126 5.84352 8.07071C5.78992 7.99439 5.80078 7.97851 5.80078 8.00078C5.80078 8.02305 5.78992 8.00718 5.84352 7.93085C5.90009 7.8503 6.00059 7.74172 6.17078 7.58746L5.49921 6.84652C5.31326 7.01506 5.14666 7.18313 5.02515 7.35615C4.90068 7.5334 4.80078 7.74802 4.80078 8.00078C4.80078 8.25354 4.90068 8.46817 5.02515 8.64541C5.14666 8.81843 5.31326 8.9865 5.49921 9.15504L6.17078 8.4141Z" fill="#4D6EF5"/>
</svg>
