<svg width="17" height="16" viewBox="0 0 17 16" fill="none" xmlns="http://www.w3.org/2000/svg">
<path d="M11.6992 7.50117C11.9754 7.50117 12.1992 7.72503 12.1992 8.00117C12.1992 8.27731 11.9754 8.50117 11.6992 8.50117V7.50117ZM2.09922 8.50117C1.82308 8.50117 1.59922 8.27731 1.59922 8.00117C1.59922 7.72503 1.82308 7.50117 2.09922 7.50117V8.50117ZM8.835 11.5713C8.6304 11.7567 8.3142 11.7412 8.12875 11.5366C7.9433 11.332 7.95883 11.0158 8.16343 10.8303L8.835 11.5713ZM11.165 8.78457L11.5008 9.15504H11.5008L11.165 8.78457ZM11.165 7.21699L11.5008 6.84652H11.5008L11.165 7.21699ZM8.16343 5.17125C7.95883 4.9858 7.9433 4.6696 8.12875 4.465C8.3142 4.26039 8.6304 4.24486 8.835 4.43031L8.16343 5.17125ZM11.6992 8.50117H2.09922V7.50117H11.6992V8.50117ZM8.16343 10.8303L10.8292 8.4141L11.5008 9.15504L8.835 11.5713L8.16343 10.8303ZM10.8292 7.58746L8.16343 5.17125L8.835 4.43031L11.5008 6.84652L10.8292 7.58746ZM10.8292 8.4141C10.9994 8.25984 11.0999 8.15126 11.1565 8.07071C11.2101 7.99439 11.1992 7.97851 11.1992 8.00078C11.1992 8.02305 11.2101 8.00718 11.1565 7.93085C11.0999 7.8503 10.9994 7.74172 10.8292 7.58746L11.5008 6.84652C11.6867 7.01506 11.8533 7.18313 11.9748 7.35615C12.0993 7.5334 12.1992 7.74802 12.1992 8.00078C12.1992 8.25354 12.0993 8.46817 11.9748 8.64541C11.8533 8.81843 11.6867 8.9865 11.5008 9.15504L10.8292 8.4141Z" fill="white"/>
</svg>
