<svg width="20" height="20" viewBox="0 0 20 20" fill="none" xmlns="http://www.w3.org/2000/svg">
<path d="M12.5007 8.33329C14.3416 8.33329 15.834 6.84091 15.834 4.99996C15.834 3.15901 14.3416 1.66663 12.5007 1.66663M14.1673 18.3333H16.5007C17.9734 18.3333 19.1673 17.1394 19.1673 15.6666C19.1673 13.4575 17.3765 11.6666 15.1673 11.6666H14.1673M10.0007 4.99996C10.0007 6.84091 8.50827 8.33329 6.66732 8.33329C4.82637 8.33329 3.33398 6.84091 3.33398 4.99996C3.33398 3.15901 4.82637 1.66663 6.66732 1.66663C8.50827 1.66663 10.0007 3.15901 10.0007 4.99996ZM3.50065 18.3333H9.83399C11.3067 18.3333 12.5007 17.1394 12.5007 15.6666C12.5007 13.4575 10.7098 11.6666 8.50065 11.6666H4.83398C2.62485 11.6666 0.833984 13.4575 0.833984 15.6666C0.833984 17.1394 2.02789 18.3333 3.50065 18.3333Z" stroke="#23252F" stroke-linecap="round" stroke-linejoin="round"/>
</svg>
