<svg width="20" height="20" viewBox="0 0 20 20" fill="none" xmlns="http://www.w3.org/2000/svg"><path d="M9.58333 5.83329C10.7292 5.83329 11.6667 4.89579 11.6667 3.74996C11.6667 2.60413 10.7292 1.66663 9.58333 1.66663C8.4375 1.66663 7.5 2.60413 7.5 3.74996C7.5 4.89579 8.4375 5.83329 9.58333 5.83329Z" fill="#23252F"></path><path d="M9.58333 7.91663C8.4375 7.91663 7.5 8.85413 7.5 9.99996C7.5 11.1458 8.4375 12.0833 9.58333 12.0833C10.7292 12.0833 11.6667 11.1458 11.6667 9.99996C11.6667 8.85413 10.7292 7.91663 9.58333 7.91663Z" fill="#23252F"></path><path d="M9.58333 14.1666C8.4375 14.1666 7.5 15.1041 7.5 16.25C7.5 17.3958 8.4375 18.3333 9.58333 18.3333C10.7292 18.3333 11.6667 17.3958 11.6667 16.25C11.6667 15.1041 10.7292 14.1666 9.58333 14.1666Z" fill="#23252F"></path></svg>