<svg width="32" height="32" viewBox="0 0 32 32" fill="none" xmlns="http://www.w3.org/2000/svg">
<path fill-rule="evenodd" clip-rule="evenodd" d="M21.5838 6.73019L21.5838 6.73021L28.8916 19.7798C30.6459 22.9125 31.523 24.4788 31.3763 25.7614C31.2483 26.8805 30.6544 27.8937 29.7406 28.5521C28.6932 29.3068 26.898 29.3068 23.3075 29.3068H8.69203C5.10157 29.3068 3.30634 29.3068 2.25893 28.5521C1.34512 27.8937 0.751254 26.8805 0.623245 25.7614C0.476523 24.4788 1.35368 22.9125 3.10799 19.7798L10.4157 6.7302C12.2408 3.47122 13.1533 1.84173 14.3537 1.29971C15.4002 0.827179 16.5993 0.827179 17.6459 1.29971C18.8463 1.84172 19.7588 3.47121 21.5838 6.73019ZM16.9997 12.9046C16.9997 12.3523 16.552 11.9046 15.9997 11.9046C15.4475 11.9046 14.9997 12.3523 14.9997 12.9046V17.6762C14.9997 18.2285 15.4475 18.6762 15.9997 18.6762C16.552 18.6762 16.9997 18.2285 16.9997 17.6762V12.9046Z" fill="#F99248"/>
<path d="M16.5972 21.8504C16.5972 22.1798 16.3302 22.4468 16.0007 22.4468C15.6713 22.4468 15.4043 22.1798 15.4043 21.8504M16.5972 21.8504C16.5972 21.5209 16.3302 21.2539 16.0007 21.2539C15.6713 21.2539 15.4043 21.5209 15.4043 21.8504M16.5972 21.8504H15.4043" stroke="white" stroke-width="1.5" stroke-linecap="round" stroke-linejoin="round"/>
</svg>
